<?xml version="1.0" standalone="no"?><!DOCTYPE svg PUBLIC "-//W3C//DTD SVG 1.1//EN" "http://www.w3.org/Graphics/SVG/1.1/DTD/svg11.dtd"><svg t="1639013739139" class="icon" viewBox="0 0 1024 1024" version="1.1" xmlns="http://www.w3.org/2000/svg" p-id="5787" xmlns:xlink="http://www.w3.org/1999/xlink" width="48" height="48"><defs><style type="text/css"></style></defs><path d="M636.47 512c0-71.11-55.932-128.835-124.502-128.835-68.574 0-124.507 57.727-124.507 128.834s55.933 128.835 124.507 128.835c68.57 0 124.503-57.726 124.503-128.834z m-124.503 78.455c-41.784 0-75.842-35.229-75.842-78.456s34.057-78.455 75.842-78.455c41.788 0 75.842 35.229 75.842 78.456s-34.054 78.455-75.842 78.455zM331.791 486.812c-13.36 0-24.298 11.346-24.298 25.188s10.938 25.187 24.298 25.187c13.364 0 24.298-11.346 24.298-25.187s-10.934-25.188-24.298-25.188zM227.786 512c0 13.84 10.938 25.187 24.302 25.187 13.357 0 24.298-11.346 24.298-25.187s-10.94-25.188-24.298-25.188c-13.364 0-24.302 11.347-24.302 25.188z m-31.042 0c0-51.167-40.345-92.952-89.795-92.952-49.446 0-89.593 41.784-89.593 92.952s40.345 92.955 89.792 92.955 89.596-41.789 89.596-92.956z m-89.596 42.572c-22.729 0-41.13-19.088-41.13-42.573s18.47-42.572 41.13-42.572c22.725 0 41.13 19.088 41.13 42.573s-18.665 42.572-41.13 42.572z m664.764-17.385c13.426 0 24.298-11.28 24.298-25.188s-10.873-25.187-24.298-25.187c-13.43 0-24.298 11.28-24.298 25.187s10.869 25.188 24.298 25.188z m-79.703 0c13.357 0 24.295-11.346 24.295-25.188s-10.938-25.187-24.295-25.187c-13.364 0-24.302 11.346-24.302 25.187s10.938 25.188 24.302 25.188z m224.643-118.14c-49.45 0-89.795 41.785-89.795 92.952s40.345 92.956 89.795 92.956c49.446 0 89.792-41.788 89.792-92.956s-40.345-92.951-89.792-92.951z m0 135.525c-22.73 0-41.13-19.088-41.13-42.573s18.466-42.572 41.13-42.572c22.725 0 41.13 19.088 41.13 42.573s-18.47 42.572-41.13 42.572zM511.967 673.373c-13.364 0-24.298 11.346-24.298 25.188 0 13.845 10.934 25.191 24.298 25.191 13.36 0 24.298-11.346 24.298-25.19 0.001-13.843-10.937-25.189-24.298-25.189z m0 82.46c-13.364 0-24.298 11.345-24.298 25.19 0 13.838 10.934 25.188 24.298 25.188 13.36 0 24.298-11.35 24.298-25.188 0.001-13.845-10.937-25.19-24.298-25.19z m0 82.454c-49.45 0-89.795 41.788-89.795 92.956 0 51.167 40.345 92.757 89.795 92.757 49.446 0 89.788-41.784 89.788-92.956 0-51.164-40.341-92.757-89.788-92.757z m0 135.333c-22.725 0-41.134-19.088-41.134-42.576 0-23.48 18.47-42.573 41.134-42.573 22.725 0 41.13 19.092 41.13 42.573 0 23.488-18.469 42.576-41.13 42.576z m0-622.994c13.36 0 24.298-11.35 24.298-25.188 0-13.845-10.938-25.191-24.298-25.191-13.364 0-24.298 11.346-24.298 25.19 0 13.839 10.934 25.189 24.298 25.189z m0-82.455c13.426 0 24.298-11.285 24.298-25.191s-10.873-25.191-24.298-25.191-24.298 11.285-24.298 25.19 10.873 25.192 24.298 25.192z m0-82.46c49.446 0 89.788-41.787 89.788-92.954S561.414 0 511.967 0c-49.45 0-89.795 41.788-89.795 92.952 0 51.167 40.346 92.76 89.795 92.76z m0-135.332c22.725 0 41.13 19.088 41.13 42.573 0 23.488-18.47 42.576-41.13 42.576-22.725 0-41.134-19.088-41.134-42.576 0.001-23.485 18.47-42.573 41.134-42.573zM367.421 626.143c-9.564 9.84-9.564 25.781 0 35.681 9.56 9.907 24.953 9.842 34.448 0 9.564-9.839 9.564-25.777 0-35.68-9.755-9.843-25.148-9.843-34.448 0z m-39.1 101.153c13.425 0 24.297-11.285 24.297-25.19 0-13.907-10.873-25.192-24.298-25.192s-24.298 11.285-24.298 25.191c0 13.906 10.872 25.191 24.298 25.191zM162.291 742.58c-35.102 36.277-35.102 95.053 0 131.33 35.106 36.274 91.824 36.274 126.926 0 35.11-36.278 35.11-95.053 0-131.33-35.102-36.079-92.018-36.079-126.926 0z m92.414 95.906c-16.047 16.597-41.98 16.597-57.962 0-15.982-16.597-16.047-43.426 0-60.023 16.043-16.6 41.98-16.6 57.962 0 16.043 16.398 16.043 43.426 0 60.023z m440.97-491.4c13.426 0 24.298-11.285 24.298-25.191s-10.873-25.188-24.298-25.188-24.298 11.28-24.298 25.188 10.873 25.19 24.298 25.19z m-56.128 58.117c13.426 0 24.298-11.281 24.298-25.188 0-13.906-10.873-25.191-24.298-25.191-13.422 0-24.295 11.285-24.295 25.19 0 13.908 10.873 25.189 24.295 25.189z m222.16-123.784c35.102-36.278 35.102-95.053 0-131.327-35.11-36.278-91.824-36.278-126.93 0-35.106 36.274-35.106 95.049 0 131.327 35.106 36.278 92.019 36.079 126.93 0z m-92.414-95.906c16.043-16.597 41.98-16.597 57.958 0 15.986 16.6 16.047 43.426 0 60.023-16.043 16.597-41.98 16.597-57.958 0-16.05-16.333-16.05-43.423 0-60.023z m-73.618 541.783c13.426 0 24.298-11.285 24.298-25.19 0-13.907-10.873-25.192-24.298-25.192s-24.298 11.285-24.298 25.191c0 13.906 10.873 25.191 24.298 25.191z m-73.42-101.153c-9.498 9.84-9.498 25.781 0 35.681 9.5 9.907 24.957 9.842 34.452 0 9.495-9.839 9.495-25.777 0-35.68-9.494-9.908-24.952-9.843-34.451 0zM734.779 742.58c-35.106 36.277-35.106 95.053 0 131.33 35.106 36.274 91.82 36.274 126.93 0 35.102-36.278 35.102-95.053 0-131.33-34.846-36.079-91.824-36.079-126.93 0z m92.673 95.906c-16.043 16.597-41.983 16.597-57.965 0-15.975-16.597-16.043-43.426 0-60.023 16.05-16.6 41.987-16.6 57.965 0 16.047 16.398 16.047 43.426 0 60.023zM384.448 405.203c13.43 0 24.298-11.281 24.298-25.188 0-13.906-10.869-25.191-24.298-25.191-13.426 0-24.298 11.285-24.298 25.19 0 13.908 10.873 25.189 24.298 25.189z m-56.128-58.117c13.426 0 24.298-11.285 24.298-25.191s-10.873-25.188-24.298-25.188-24.298 11.28-24.298 25.188 10.872 25.19 24.298 25.19z m-39.163-65.667c35.102-36.278 35.102-95.053 0-131.327-35.106-36.278-91.827-36.278-126.926 0-35.11 36.274-35.11 95.049 0 131.327 34.842 36.079 91.82 36.079 126.926 0z m-92.612-95.906c16.047-16.597 41.983-16.597 57.962 0 15.986 16.6 16.047 43.426 0 60.023-16.043 16.597-41.976 16.597-57.962 0-16.043-16.333-16.043-43.423 0-60.023z" fill="" p-id="5788"></path></svg>