<?xml version="1.0" encoding="utf-8"?>
<!-- Generator: Adobe Illustrator 23.1.1, SVG Export Plug-In . SVG Version: 6.00 Build 0)  -->
<svg version="1.1" id="图层_1" xmlns="http://www.w3.org/2000/svg" xmlns:xlink="http://www.w3.org/1999/xlink" x="0px" y="0px"
	 viewBox="0 0 296.86 275.15" style="enable-background:new 0 0 296.86 275.15;" xml:space="preserve">
<style type="text/css">
	.st0{fill-rule:evenodd;clip-rule:evenodd;fill:#8DCDB5;}
	.st1{fill-rule:evenodd;clip-rule:evenodd;fill:#FFFFFF;}
	.st2{fill:#FFFFFF;}
</style>
<g>
	<path class="st2" d="M81.38,120.07l-17.02-0.06l-0.13,37.9l17.02,0.06c10.46,0.04,18.98-8.42,19.01-18.88
		C100.3,128.62,91.85,120.11,81.38,120.07z M77.71,154.67l-9.23-0.03l0.07-20.54l9.23,0.03c5.67,0.02,10.26,4.63,10.24,10.31
		C88,150.11,83.39,154.69,77.71,154.67z"/>
	<path class="st2" d="M47.21,141.83l0.05,12.84l-5.25,0.02l-0.09-20.59l5.25-0.02l11.8,12.77l0-4.71l-0.01-2.49
		c-0.19-10.88-9.07-19.64-19.99-19.63c-11.04,0.01-19.98,8.96-19.97,20l0.01,17.95l39.97-0.03l0-3.36L47.21,141.83z"/>
	<g>
		<path class="st2" d="M132.73,123.76c0-1.43,0.27-2.42,0.81-2.94c0.54-0.53,1.57-0.79,3.11-0.79h11.62c1.53,0,2.57,0.27,3.11,0.79
			c0.54,0.53,0.81,1.51,0.81,2.94v8.32c0,1.44-0.27,2.43-0.81,2.95c-0.54,0.52-1.57,0.78-3.11,0.78h-11.62
			c-1.53,0-2.57-0.26-3.11-0.78c-0.54-0.52-0.81-1.51-0.81-2.95V123.76z M138.09,132.84h8.76c0.93,0,1.68-0.75,1.68-1.68v-6.64
			c0-0.93-0.75-1.68-1.68-1.68h-8.76c-0.93,0-1.68,0.75-1.68,1.68v6.64C136.41,132.09,137.16,132.84,138.09,132.84z"/>
		<path class="st2" d="M180.6,129.86l0.03-2.71h7.13l-0.03,2.71H180.6z"/>
		<path class="st2" d="M193.27,135.82v-15.79h10.16c2.9,0,5.13,0.68,6.69,2.03c1.56,1.35,2.34,3.28,2.34,5.77
			c0,1.47-0.3,2.8-0.91,3.98c-0.61,1.18-1.46,2.11-2.57,2.79c-0.69,0.43-1.54,0.74-2.56,0.93c-1.02,0.19-2.33,0.29-3.92,0.29H193.27
			z M196.57,132.84h5.13c2.53,0,4.32-0.39,5.38-1.18c1.06-0.79,1.58-2.09,1.58-3.9c0-1.61-0.44-2.84-1.32-3.67
			c-0.88-0.83-2.17-1.24-3.88-1.24h-6.89V132.84z"/>
		<path class="st2" d="M240.7,120.02v10.49c0,1.29,1.05,2.34,2.34,2.34h5.8c1.29,0,2.34-1.05,2.34-2.34v-10.49l3.3,0.13v12.06
			c0,1.44,0.09,2.29-0.45,2.82c-0.54,0.52-1.58,0.78-3.11,0.78h-9.98c-1.52,0-2.56-0.26-3.1-0.78c-0.54-0.52-0.44-1.53-0.44-2.98
			V120L240.7,120.02z"/>
		<path class="st2" d="M274.38,122.85h-11.85v9.99h11.85v-2.99h-6.01v-2.71h9.58v4.93c0,1.44-0.27,2.43-0.81,2.95
			c-0.54,0.52-1.57,0.78-3.11,0.78h-10.89c-1.53,0-2.57-0.26-3.11-0.78c-0.54-0.52-0.81-1.51-0.81-2.95v-8.32
			c0-1.43,0.27-2.42,0.81-2.94c0.54-0.53,1.57-0.79,3.11-0.79h10.89c1.51,0,2.55,0.26,3.09,0.78c0.55,0.52,0.82,1.45,0.82,2.81v0.99
			l-3.57,0.01V122.85z"/>
		<g>
			<polygon class="st2" points="122.46,128.53 112.3,120.02 109.79,120.02 109.79,135.82 113.09,135.82 113.1,125.08 122.46,132.96 
							"/>
			<polygon class="st2" points="125.06,120.02 125.06,128.03 125.06,128.03 125.06,129.59 125.06,130.71 125.06,130.71 
				125.06,135.15 125.06,135.82 128.36,135.82 128.36,120.02 			"/>
		</g>
		<g>
			<polygon class="st2" points="171.81,120.02 171.82,130.71 171.81,130.71 171.81,135.15 171.81,135.82 175.12,135.82 
				175.12,120.02 			"/>
			<polygon class="st2" points="169.21,128.53 159.05,120.02 156.54,120.02 156.54,135.82 159.85,135.82 159.85,125.08 
				169.21,132.96 			"/>
		</g>
		<path class="st2" d="M227.29,129.86h2.06c1.25,0,2.16-0.25,2.73-0.73c0.56-0.49,0.84-1.26,0.84-2.33v-3.7
			c0-1.08-0.28-1.86-0.84-2.34c-0.56-0.48-1.47-0.73-2.73-0.73h-13.51v15.79h3.3v-2.97v-2.99v-2.71v-2.1v-2.29h8.58
			c0.64,0,1.07,0.09,1.31,0.28c0.23,0.18,0.35,0.5,0.35,0.96v1.9c0,0.47-0.12,0.8-0.35,0.98c-0.23,0.18-0.67,0.28-1.31,0.28h-5.97
			v2.71h1.19l6.36,5.96h5.28L227.29,129.86z"/>
	</g>
	<g>
		<path class="st2" d="M204.54,144.96v12.97h-3.3v-12.97h-7.45v-2.83h18.2v2.83H204.54z"/>
		<polygon class="st2" points="231.87,142.13 231.87,148.35 219.95,148.35 219.93,142.13 216.64,142.13 216.64,157.93 
			219.93,157.93 219.95,151.04 231.87,151.04 231.87,157.93 235.18,157.93 235.18,142.13 		"/>
		<polygon class="st2" points="149.71,151.04 149.71,148.35 136.69,148.35 136.69,146.13 136.69,146.13 136.69,144.82 
			149.56,144.82 149.56,142.13 133.39,142.13 133.39,157.93 149.71,157.93 149.71,154.95 136.69,154.95 136.69,153.93 
			136.69,153.93 136.69,151.04 		"/>
		<path class="st2" d="M175.66,157.93l-9.06-15.79h-3.54l-8.94,15.79h3.66l2.24-4.2h9.26l2.25,4.2H175.66z M161.52,151.04l3.19-5.84
			l3.13,5.84H161.52z"/>
		<polygon class="st2" points="183.38,154.95 183.39,142.13 180.08,142.13 180.08,154.95 180.08,157.93 183.38,157.93 
			195.61,157.93 195.61,154.95 		"/>
		<polygon class="st2" points="125.05,142.13 125.05,148.35 113.13,148.35 113.11,142.13 109.82,142.13 109.82,157.93 
			113.11,157.93 113.13,151.04 125.05,151.04 125.05,157.93 128.36,157.93 128.36,142.13 		"/>
	</g>
</g>
</svg>
