<?xml version="1.0" encoding="utf-8"?>
<!-- Generator: Adobe Illustrator 25.0.0, SVG Export Plug-In . SVG Version: 6.00 Build 0)  -->
<svg version="1.1" id="图层_1" xmlns="http://www.w3.org/2000/svg" xmlns:xlink="http://www.w3.org/1999/xlink" x="0px" y="0px"
	 viewBox="0 0 32 32" style="enable-background:new 0 0 32 32;" xml:space="preserve">
<style type="text/css">
	.st0{fill:#FFFFFF;}
</style>
<path class="st0" d="M16,1.2C7.8,1.2,1.2,7.8,1.2,16S7.8,30.8,16,30.8S30.8,24.2,30.8,16S24.2,1.2,16,1.2z M23.7,20.4
	c0,0.9-0.7,1.5-1.6,1.5H9.9c-0.8,0-1.6-0.7-1.6-1.5v-7.4l7.6,4c0.1,0.1,0.3,0.1,0.4,0l7.5-4C23.7,13.2,23.7,20.4,23.7,20.4z
	 M16,15.6l-7.7-4.1C8.3,10.6,9,10,9.8,10h12.3c0.8,0,1.5,0.7,1.6,1.5L16,15.6L16,15.6z"/>
</svg>
