<svg id="图层_1" data-name="图层 1" xmlns="http://www.w3.org/2000/svg" viewBox="0 0 33.86 33.15"><defs><style>.cls-1{fill:#fff;}</style></defs><title>ins</title><path class="cls-1" d="M17.34,12.29a4.38,4.38,0,1,0,4.38,4.37A4.36,4.36,0,0,0,17.34,12.29Zm0,7.22a2.85,2.85,0,1,1,2.85-2.85A2.85,2.85,0,0,1,17.34,19.51Zm4.56-8.42a1,1,0,1,0,1,1A1,1,0,0,0,21.9,11.09Zm4,5.57c0-1.17,0-2.34-.06-3.52a5.07,5.07,0,0,0-1.38-3.57,5,5,0,0,0-3.57-1.38c-1.18-.07-2.35-.06-3.52-.06s-2.35,0-3.52.06a5.09,5.09,0,0,0-3.58,1.38,5.08,5.08,0,0,0-1.38,3.57c-.06,1.18,0,2.35,0,3.52s0,2.35,0,3.53a5.08,5.08,0,0,0,1.38,3.57,5.09,5.09,0,0,0,3.58,1.38c1.17.06,2.34.05,3.52.05s2.34,0,3.52-.05a5.07,5.07,0,0,0,3.57-1.38,5,5,0,0,0,1.38-3.57c.07-1.18.06-2.35.06-3.53ZM24,21.7a2.86,2.86,0,0,1-.65,1,2.76,2.76,0,0,1-1,.65c-1.13.44-3.79.34-5,.34s-3.91.1-5-.34a2.78,2.78,0,0,1-1-.64,2.73,2.73,0,0,1-.64-1c-.45-1.13-.35-3.79-.35-5s-.1-3.91.35-5A2.85,2.85,0,0,1,12.31,10c1.12-.45,3.79-.35,5-.35s3.92-.1,5,.35a2.65,2.65,0,0,1,1,.64,2.78,2.78,0,0,1,.64,1c.44,1.12.34,3.79.34,5S24.44,20.57,24,21.7Z"/></svg>