<?xml version="1.0" encoding="utf-8"?>
<!-- Generator: Adobe Illustrator 25.0.0, SVG Export Plug-In . SVG Version: 6.00 Build 0)  -->
<svg version="1.1" id="隔离模式" xmlns="http://www.w3.org/2000/svg" xmlns:xlink="http://www.w3.org/1999/xlink" x="0px"
	 y="0px" viewBox="0 0 340.44 69" style="enable-background:new 0 0 340.44 69;" xml:space="preserve">
<style type="text/css">
	.st0{fill:#323333;}
	.st1{opacity:0.2;fill:#040000;}
</style>
<g>
	<g>
		<g>
			<path class="st0" d="M156.35,15.13h-45.43v45.43h-7.26V7.87h52.68V15.13z"/>
			<polygon class="st0" points="156.35,7.87 156.35,15.13 110.92,15.13 110.92,60.56 103.67,60.56 103.67,7.87 			"/>
		</g>
		<g>
			<rect x="121.15" y="29.23" class="st0" width="29.97" height="7.26"/>
		</g>
		<g>
			<path class="st0" d="M244.38,29.23v7.26h29.97v-7.26H244.38z"/>
			<rect x="244.38" y="29.23" class="st0" width="29.97" height="7.26"/>
		</g>
		<g>
			<polygon class="st0" points="234.13,15.13 234.13,50.59 279.58,50.59 279.58,57.85 226.89,57.85 226.89,7.87 279.58,7.87 
				279.58,15.13 			"/>
		</g>
		<g>
			<g>
				<polygon class="st0" points="337.55,7.87 316.46,28.93 316.46,60.56 309.2,60.56 309.2,28.93 288.13,7.87 298.39,7.87 
					312.84,22.3 327.28,7.87 				"/>
			</g>
		</g>
		<g>
			<path class="st0" d="M195.69,36.49l21.36,21.36h-10.25l-28.63-28.62h25.47c3.9,0,7.07-3.16,7.07-7.05c0-1.87-0.74-3.65-2.08-5
				c-1.34-1.33-3.12-2.05-4.99-2.05h-38.38V7.87h38.39c7.89,0,14.31,6.41,14.31,14.31c0,7.89-6.42,14.31-14.31,14.31H195.69z"/>
		</g>
	</g>
	<g>
		<path class="st1" d="M67.81,60.14L67.81,60.14c0,3.58-2.9,6.48-6.48,6.48c-0.95,0-1.85-0.2-2.66-0.57
			c-0.72-0.32-1.37-0.77-1.92-1.32c-0.55-0.55-1-1.2-1.33-1.92c-0.37-0.81-0.57-1.72-0.57-2.67v0c0-3.52,2.81-6.39,6.31-6.48h0.17
			h0.17c0.89,0.02,1.74,0.22,2.5,0.57c0.72,0.32,1.37,0.78,1.91,1.33c0.55,0.55,1,1.2,1.32,1.91v0
			C67.61,58.29,67.81,59.19,67.81,60.14z"/>
		<path class="st0" d="M67.81,34.21L67.81,34.21c0,3.58-2.9,6.48-6.48,6.48h0h-6.48c-0.12,0-0.23,0-0.35,0
			c-2.23,0.06-4.32,0.68-6.14,1.73c-1.97,1.14-3.61,2.78-4.75,4.75c-1.1,1.91-1.74,4.12-1.74,6.48v0v6.48v0
			c0,3.58-2.9,6.48-6.48,6.48h0c-3.58,0-6.48-2.9-6.48-6.48v0v-6.48v-6.48c0-2.27,0.39-4.45,1.11-6.48
			c0.85-2.42,2.17-4.61,3.84-6.48c0.48-0.54,0.99-1.05,1.53-1.53c1.87-1.67,4.07-2.99,6.48-3.84c2.03-0.72,4.21-1.11,6.48-1.11h6.48
			h6.48h0C64.91,27.73,67.81,30.63,67.81,34.21z"/>
		<path class="st0" d="M67.81,8.28L67.81,8.28c0,3.58-2.9,6.48-6.48,6.48h0h-6.48h-6.48h-6.48c-2.24,0-4.41,0.28-6.48,0.82
			c-2.3,0.59-4.48,1.49-6.48,2.65c-1.5,0.86-2.9,1.88-4.19,3.01c-0.81,0.72-1.58,1.48-2.29,2.29c-1.14,1.29-2.15,2.69-3.01,4.19
			c-1.16,2.01-2.06,4.18-2.65,6.48c-0.53,2.07-0.82,4.24-0.82,6.48v6.48v6.48v6.48v0c0,3.58-2.9,6.48-6.48,6.48h0
			c-3.58,0-6.48-2.9-6.48-6.48V34.21c0-2.22,0.22-4.39,0.65-6.48c0.46-2.25,1.15-4.42,2.05-6.48c1.01-2.32,2.28-4.49,3.78-6.48h0v0
			c1.84-2.45,4.03-4.64,6.48-6.48c1.99-1.5,4.17-2.77,6.48-3.79c2.06-0.9,4.23-1.59,6.48-2.05c2.09-0.43,4.26-0.65,6.48-0.65h25.93
			C64.91,1.8,67.81,4.7,67.81,8.28z"/>
	</g>
</g>
</svg>
