<svg id="图层_1" data-name="图层 1" xmlns="http://www.w3.org/2000/svg" viewBox="0 0 33.86 33.15"><defs><style>.cls-1{fill:#fff;}</style></defs><title>youtube</title><path class="cls-1" d="M26.5,16.6v-.16c0-.17,0-.37,0-.57,0-.6,0-1.19-.09-1.75a12,12,0,0,0-.29-1.9,3,3,0,0,0-2.1-2.1,19.27,19.27,0,0,0-3.45-.32c-.79,0-1.64-.05-2.49-.06H15.81c-.85,0-1.7,0-2.49.06a19.27,19.27,0,0,0-3.45.32,3,3,0,0,0-2.1,2.1,11.07,11.07,0,0,0-.28,1.9c0,.56-.08,1.15-.1,1.75,0,.2,0,.4,0,.57v.45c0,.17,0,.36,0,.57,0,.6.05,1.19.1,1.75a10.78,10.78,0,0,0,.28,1.89,3,3,0,0,0,2.1,2.1,18.1,18.1,0,0,0,3.45.33c.79,0,1.64,0,2.49.06h2.26c.85,0,1.7,0,2.49-.06A19,19,0,0,0,24,23.2a3,3,0,0,0,2.1-2.1,11.68,11.68,0,0,0,.29-1.89c0-.56.07-1.15.09-1.75,0-.21,0-.4,0-.57V16.6ZM25,16.72a.86.86,0,0,1,0,.15c0,.16,0,.35,0,.55,0,.56,0,1.13-.09,1.66a9.56,9.56,0,0,1-.24,1.63,1.43,1.43,0,0,1-1,1A18.51,18.51,0,0,1,20.5,22c-.78,0-1.61.05-2.45.06H15.83c-.84,0-1.67,0-2.45-.06a19.83,19.83,0,0,1-3.11-.27,1.43,1.43,0,0,1-1-1A10.69,10.69,0,0,1,9,19.08c0-.53-.07-1.1-.09-1.66,0-.2,0-.39,0-.55v-.41c0-.17,0-.35,0-.55,0-.57,0-1.13.09-1.66a10.5,10.5,0,0,1,.24-1.63,1.43,1.43,0,0,1,1-1,19.42,19.42,0,0,1,3.11-.28l2.45-.05h2.22l2.45.05a19.15,19.15,0,0,1,3.11.28,1.43,1.43,0,0,1,1,1,9.4,9.4,0,0,1,.24,1.63c.05.53.08,1.09.09,1.66,0,.2,0,.39,0,.55s0,.11,0,.15ZM15,19.52,20,16.64,15,13.8Z"/></svg>