<?xml version="1.0" standalone="no"?><!DOCTYPE svg PUBLIC "-//W3C//DTD SVG 1.1//EN" "http://www.w3.org/Graphics/SVG/1.1/DTD/svg11.dtd"><svg t="1639013690505" class="icon" viewBox="0 0 1109 1024" version="1.1" xmlns="http://www.w3.org/2000/svg" p-id="4902" xmlns:xlink="http://www.w3.org/1999/xlink" width="51.984375" height="48"><defs><style type="text/css"></style></defs><path d="M1039.786667 137.301333c0-40.96-36.352-77.397333-102.741334-102.229333-58.368-21.930667-135.68-34.133333-217.173333-34.133333-81.408 0-158.72 12.202667-217.088 34.133333-66.986667 24.746667-103.338667 61.184-103.338667 102.229333v195.669334a873.472 873.472 0 0 0-79.104-4.010667c-81.408 0-158.72 12.117333-217.088 34.133333-66.389333 25.344-102.826667 61.696-102.826666 102.741334v420.864c0 40.96 36.437333 77.397333 102.826666 102.229333 58.282667 21.930667 135.68 34.133333 217.088 34.133333s158.72-12.202667 217.088-34.133333c57.770667-21.930667 93.013333-51.968 101.034667-86.613333 26.624 2.901333 53.76 4.096 80.896 4.096 81.408 0 158.72-12.202667 217.088-34.133334 66.389333-24.746667 102.741333-61.184 102.741333-102.144v-3.498666l0.597334-629.333334z m-51.370667 476.330667c0 35.242667-105.130667 85.418667-269.056 85.418667-27.136 0-53.76-1.109333-79.104-4.010667V589.909333c25.941333 2.901333 51.968 4.096 79.104 4.096 81.408 0 158.72-12.117333 217.088-34.133333 20.224-7.424 37.546667-16.128 51.968-25.344v79.104z m-399.018667-1.194667c0 35.242667-105.045333 85.504-269.056 85.504S51.2 647.082667 51.2 612.437333V542.72c14.421333 9.216 31.744 17.92 51.968 25.344 58.282667 21.930667 135.68 34.133333 217.088 34.133333s158.72-12.202667 217.088-34.133333c20.224-7.509333 37.546667-16.213333 52.053333-25.344v69.802667z m-538.112 76.8c14.421333 9.301333 31.744 17.92 51.968 25.429334 58.282667 21.930667 135.68 34.133333 217.088 34.133333s158.72-12.202667 217.088-34.133333c20.224-7.509333 37.546667-16.213333 52.053334-25.429334v60.586667c0 35.328-105.130667 85.504-269.141334 85.504S51.2 784.554667 51.2 749.909333v-60.586666z m937.130667-231.509333c0 35.242667-105.130667 85.418667-269.056 85.418667-27.136 0-53.76-1.109333-79.104-4.010667v-73.386667a72.448 72.448 0 0 0-8.106667-32.256c28.245333 2.901333 57.173333 4.608 87.210667 4.608 81.408 0 158.72-12.117333 217.088-34.133333 20.224-7.424 37.546667-16.128 51.968-25.344v79.104z m0-156.501333c0 35.242667-105.130667 85.504-269.056 85.504-164.010667 0-269.141333-50.858667-269.141333-85.504V214.016c14.506667 9.301333 31.829333 17.92 52.053333 25.429333 58.282667 21.930667 135.68 34.133333 217.088 34.133334s158.72-12.202667 217.088-34.133334c20.224-7.509333 37.546667-16.213333 51.968-25.429333V301.226667zM719.36 51.2c163.925333 0 269.056 50.858667 269.056 85.504S883.882667 222.72 719.36 222.72c-164.010667 0-269.141333-50.773333-269.141333-85.418667C450.218667 102.656 555.349333 51.2 719.36 51.2zM320.341333 379.733333c36.352 0 69.290667 2.389333 99.328 6.997334 1.109333 0 1.706667 0.512 2.901334 0.512 103.936 15.018667 166.826667 51.456 166.826666 78.506666 0 35.242667-105.045333 85.504-269.056 85.504S51.2 500.48 51.2 465.92c0-34.645333 104.448-86.101333 269.056-86.101333z m0 593.066667C156.330667 972.8 51.2 921.941333 51.2 887.296v-60.586667c14.421333 9.216 31.744 17.92 51.968 25.344 58.282667 22.016 135.68 34.133333 217.088 34.133334s158.72-12.117333 217.088-34.133334c20.224-7.424 37.546667-16.128 52.053333-25.344v60.586667c0 34.645333-105.130667 85.504-269.141333 85.504z m399.018667-117.248c-27.136 0-53.76-1.109333-79.104-4.010667V746.410667c25.941333 2.901333 51.968 4.096 79.104 4.096 81.408 0 158.72-12.202667 217.088-34.133334 20.224-7.509333 37.546667-16.213333 51.968-25.344v79.616c0 34.133333-104.533333 84.906667-269.056 84.906667z" fill="" p-id="4903"></path></svg>