<?xml version="1.0" standalone="no"?><!DOCTYPE svg PUBLIC "-//W3C//DTD SVG 1.1//EN" "http://www.w3.org/Graphics/SVG/1.1/DTD/svg11.dtd"><svg t="1639013805595" class="icon" viewBox="0 0 1152 1024" version="1.1" xmlns="http://www.w3.org/2000/svg" p-id="6175" xmlns:xlink="http://www.w3.org/1999/xlink" width="54" height="48"><defs><style type="text/css"></style></defs><path d="M162.133333 136.533333m-34.133333 0a0.8 0.8 0 1 0 68.266667 0 0.8 0.8 0 1 0-68.266667 0Z" p-id="6176" fill=""></path><path d="M1002.666667 277.333333l-853.333333 0C72.533333 277.333333 8.533333 213.333333 8.533333 136.533333S72.533333 0 149.333333 0l853.333333 0c76.8 0 136.533333 64 136.533333 136.533333S1079.466667 277.333333 1002.666667 277.333333zM149.333333 64c-42.666667 0-76.8 34.133333-76.8 76.8S106.666667 213.333333 149.333333 213.333333l853.333333 0c42.666667 0 76.8-34.133333 76.8-76.8s-34.133333-76.8-76.8-76.8L149.333333 59.733333z" p-id="6177" fill=""></path><path d="M162.133333 887.466667m-34.133333 0a0.8 0.8 0 1 0 68.266667 0 0.8 0.8 0 1 0-68.266667 0Z" p-id="6178" fill=""></path><path d="M1002.666667 1024l-853.333333 0c-76.8 0-136.533333-64-136.533333-136.533333s64-136.533333 136.533333-136.533333l853.333333 0c76.8 0 136.533333 64 136.533333 136.533333S1079.466667 1024 1002.666667 1024zM149.333333 810.666667c-42.666667 0-76.8 34.133333-76.8 76.8s34.133333 76.8 76.8 76.8l853.333333 0c42.666667 0 76.8-34.133333 76.8-76.8S1045.333333 810.666667 1002.666667 810.666667L149.333333 810.666667z" p-id="6179" fill=""></path><path d="M162.133333 512m-34.133333 0a0.8 0.8 0 1 0 68.266667 0 0.8 0.8 0 1 0-68.266667 0Z" p-id="6180" fill=""></path><path d="M1002.666667 648.533333l-853.333333 0c-76.8 0-136.533333-64-136.533333-136.533333s64-136.533333 136.533333-136.533333l853.333333 0c76.8 0 136.533333 64 136.533333 136.533333S1079.466667 648.533333 1002.666667 648.533333zM149.333333 435.2c-42.666667 0-76.8 34.133333-76.8 76.8s34.133333 76.8 76.8 76.8l853.333333 0c42.666667 0 76.8-34.133333 76.8-76.8s-34.133333-76.8-76.8-76.8L149.333333 435.2z" p-id="6181" fill=""></path></svg>