<?xml version="1.0" encoding="utf-8"?>
<!-- Generator: Adobe Illustrator 25.0.0, SVG Export Plug-In . SVG Version: 6.00 Build 0)  -->
<svg version="1.1" id="图层_1" xmlns="http://www.w3.org/2000/svg" xmlns:xlink="http://www.w3.org/1999/xlink" x="0px" y="0px"
	 viewBox="0 0 63.9 48" style="enable-background:new 0 0 63.9 48;" xml:space="preserve">
<style type="text/css">
	.st0{fill:#006835;}
</style>
<path fill="" d="M53,11.8l10,10c1.2,1.2,1.2,3.1,0,4.2L52.9,36.2c-0.1,0.1-0.2,0.1-0.3,0l-1.9-1.9c-0.1-0.1-0.1-0.2,0-0.3
	l8.2-8.2c0.1-0.1,0-0.3-0.1-0.3H0.2c-0.1,0-0.2-0.1-0.2-0.2v-2.6c0-0.1,0.1-0.2,0.2-0.2H59c0.2,0,0.2-0.2,0.1-0.3L50.9,14
	c-0.1-0.1-0.1-0.2,0-0.3l1.9-1.9C52.8,11.7,52.9,11.7,53,11.8z"/>
</svg>
