<?xml version="1.0" standalone="no"?><!DOCTYPE svg PUBLIC "-//W3C//DTD SVG 1.1//EN" "http://www.w3.org/Graphics/SVG/1.1/DTD/svg11.dtd"><svg t="1640241829957" class="icon" viewBox="0 0 1024 1024" version="1.1" xmlns="http://www.w3.org/2000/svg" p-id="16795" xmlns:xlink="http://www.w3.org/1999/xlink" width="48" height="48"><defs><style type="text/css"></style></defs><path d="M869.5 661.2L704.3 496l155.1-155.1c5.9-5.6 9.9-10.6 9.9-18.3 0-5.2-1.9-9-4.8-13.6C794 187.1 662.3 105.1 511.4 105.1c-225.1 0-407.7 182.5-407.7 407.7s182.5 407.7 407.7 407.7c157.7 0 294.5-89.6 362.3-220.6 0 0 7.6-12.6 7.6-19.2 0-8.5-5.4-13.5-11.8-19.5zM511.4 876.3c-200.8 0-363.6-162.8-363.6-363.6s162.8-363.6 363.6-363.6c130.2 0 244.4 68.4 308.6 171.3L645.7 494.8l-1.8 1.8 187.9 187.9C770.6 798.7 650 876.3 511.4 876.3z" fill="#AAD055" p-id="16796"></path><path d="M470.1 440.6h-69.4v-70.8c0-10.9-8.8-19.8-19.8-19.8s-19.8 8.8-19.8 19.8v70.8h-69.4c-10.9 0-19.8 8.8-19.8 19.8 0 10.9 8.8 19.8 19.8 19.8h69.4V548c0 10.9 8.8 19.8 19.8 19.8s19.8-8.8 19.8-19.8v-67.9h69.4c10.9 0 19.8-8.8 19.8-19.8-0.1-10.9-8.9-19.7-19.8-19.7z" fill="#AAD055" p-id="16797"></path><path d="M873 497.5m-47.6 0a47.6 47.6 0 1 0 95.2 0 47.6 47.6 0 1 0-95.2 0Z" fill="#AAD055" p-id="16798"></path></svg>