<?xml version="1.0" encoding="utf-8"?>
<!-- Generator: Adobe Illustrator 25.0.0, SVG Export Plug-In . SVG Version: 6.00 Build 0)  -->
<svg version="1.1" id="图层_1" xmlns="http://www.w3.org/2000/svg" xmlns:xlink="http://www.w3.org/1999/xlink" x="0px" y="0px"
	 viewBox="0 0 330.67 199.11" style="enable-background:new 0 0 330.67 199.11;" xml:space="preserve">
<g>
	<path d="M184.41,99.69c-0.03,49.09-39.39,88.79-87.92,88.67c-48.66-0.12-88.03-39.83-88.01-88.78C8.51,50.6,47.85,11.02,96.6,10.95
		C145.19,10.88,184.44,50.54,184.41,99.69z"/>
	<path d="M283.26,99.72c-0.98,20.68-3.98,40.72-13.98,58.94c-3.61,6.58-8.6,12.74-14.11,17.85c-9.96,9.23-24.2,8.5-34.54-0.58
		c-8.09-7.11-13.66-15.94-17.21-25.95c-13.04-36.71-12.93-73.15,3.83-108.7c3.17-6.72,8.39-12.86,13.83-18.04
		c10.18-9.71,24.8-9.13,35.32,0.3c13.19,11.82,19.13,27.47,22.57,44.12C281.15,78.18,281.88,89.02,283.26,99.72z"/>
	<path d="M291.48,99.3c0.89-19.59,2.21-39,6.75-58.04c1.07-4.47,2.86-8.9,5.08-12.93c2.56-4.65,6.74-4.68,9.18,0.06
		c2.49,4.82,4.62,10.05,5.66,15.35c7.29,37.17,7.27,74.43,0.04,111.62c-0.97,5-2.83,9.95-5.07,14.53
		c-2.98,6.08-8.04,6.21-10.39-0.07c-3.23-8.65-5.94-17.7-7.23-26.82C293.44,128.54,292.75,113.88,291.48,99.3z"/>
</g>
</svg>
