<svg id="图层_1" data-name="图层 1" xmlns="http://www.w3.org/2000/svg" viewBox="0 0 33.86 33.15"><defs><style>.cls-1{fill:#fff;}</style></defs><title>推特</title><path class="cls-1" d="M26,11.16a7,7,0,0,1-2.09.57,3.64,3.64,0,0,0,1.6-2,7.18,7.18,0,0,1-2.31.88,3.64,3.64,0,0,0-6.3,2.49,4.79,4.79,0,0,0,.09.84,10.34,10.34,0,0,1-7.5-3.81A3.56,3.56,0,0,0,9,12a3.66,3.66,0,0,0,1.63,3A3.77,3.77,0,0,1,9,14.52v.05a3.64,3.64,0,0,0,2.92,3.57,3.83,3.83,0,0,1-1,.12,5.21,5.21,0,0,1-.69-.05,3.64,3.64,0,0,0,3.4,2.52,7.27,7.27,0,0,1-4.51,1.56,6.31,6.31,0,0,1-.88-.05,10.35,10.35,0,0,0,15.94-8.72c0-.16,0-.32,0-.47A7.6,7.6,0,0,0,26,11.16Z"/></svg>