<?xml version="1.0" standalone="no"?><!DOCTYPE svg PUBLIC "-//W3C//DTD SVG 1.1//EN" "http://www.w3.org/Graphics/SVG/1.1/DTD/svg11.dtd"><svg t="1640223277738" class="icon" viewBox="0 0 1024 1024" version="1.1" xmlns="http://www.w3.org/2000/svg" p-id="5372" xmlns:xlink="http://www.w3.org/1999/xlink" width="48" height="48"><defs><style type="text/css"></style></defs><path d="M512 69.818182a116.363636 116.363636 0 0 1 116.224 110.405818 395.822545 395.822545 0 0 1 269.870545 464.989091 116.363636 116.363636 0 1 1-115.572363 201.960727A393.914182 393.914182 0 0 1 512 954.181818a394.24 394.24 0 0 1-270.568727-107.008 116.363636 116.363636 0 0 1-115.525818-202.007273 395.822545 395.822545 0 0 1 269.963636-464.942545L395.636364 186.181818A116.363636 116.363636 0 0 1 512 69.818182z m159.744 611.421091L512 773.492364l-159.790545-92.206546-54.784 29.137455a116.363636 116.363636 0 0 1-20.014546 106.589091l-9.169454-8.564364A347.927273 347.927273 0 0 0 512 907.636364c90.344727 0 172.683636-34.304 234.682182-90.624a116.363636 116.363636 0 0 1-20.107637-106.589091l-54.830545-29.184zM837.818182 674.909091a69.818182 69.818182 0 1 0 0 139.636364 69.818182 69.818182 0 0 0 0-139.636364z m-651.636364 0a69.818182 69.818182 0 1 0 0 139.636364 69.818182 69.818182 0 0 0 0-139.636364z m325.818182-273.780364l-141.079273 81.454546v162.909091L512 726.946909l141.079273-81.454545v-162.909091L512 401.128727z m109.009455-174.312727l-1.117091 2.978909A116.549818 116.549818 0 0 1 535.272727 300.218182v67.816727l158.161455 91.275636v180.736l55.575273 29.556364a116.130909 116.130909 0 0 1 104.913454-40.122182 349.230545 349.230545 0 0 0-232.866909-402.618182z m-218.065455 0l-6.423273 2.187636a349.230545 349.230545 0 0 0-226.397091 400.477091 116.130909 116.130909 0 0 1 104.913455 40.122182l55.528727-29.556364V459.310545L488.727273 368.034909V300.218182a116.549818 116.549818 0 0 1-85.736728-73.355637zM512 116.363636a69.818182 69.818182 0 1 0 0 139.636364 69.818182 69.818182 0 0 0 0-139.636364z" fill="#6b6ef9" p-id="5373"></path><path d="M391.073135 636.882046m11.636364-20.154773l0 0q11.636364-20.154773 31.791137-8.51841l80.619092 46.545455q20.154773 11.636364 8.518409 31.791137l0 0q-11.636364 20.154773-31.791136 8.518409l-80.619093-46.545455q-20.154773-11.636364-8.518409-31.791136Z" fill="#6b6ef9" p-id="5374"></path></svg>