<?xml version="1.0" standalone="no"?><!DOCTYPE svg PUBLIC "-//W3C//DTD SVG 1.1//EN" "http://www.w3.org/Graphics/SVG/1.1/DTD/svg11.dtd"><svg t="1640241748076" class="icon" viewBox="0 0 1092 1024" version="1.1" xmlns="http://www.w3.org/2000/svg" p-id="13287" xmlns:xlink="http://www.w3.org/1999/xlink" width="51.1875" height="48"><defs><style type="text/css"></style></defs><path d="M964.944762 1024h-837.839638a127.262465 127.262465 0 0 1-127.105124-127.183795V301.137135a127.249353 127.249353 0 0 1 127.105124-127.105124h837.839638a127.249353 127.249353 0 0 1 127.105124 127.105124v595.744629a127.262465 127.262465 0 0 1-127.105124 127.118236z m-837.839638-799.133806a76.349612 76.349612 0 0 0-76.25783 76.270941v595.744629a76.349612 76.349612 0 0 0 76.25783 76.270942h837.839638a76.349612 76.349612 0 0 0 76.25783-76.270942V301.137135a76.349612 76.349612 0 0 0-76.25783-76.270941z" p-id="13288" fill="#4FD1D9"></path><path d="M1041.202592 753.754104H679.908832a50.899741 50.899741 0 0 1-50.847294-50.847295V495.11209a50.912853 50.912853 0 0 1 50.847294-50.847294h361.29376a50.899741 50.899741 0 0 1 50.847294 50.847294v207.794719a50.899741 50.899741 0 0 1-50.847294 50.847295z m0-50.847295zM679.908832 495.11209v207.794719h361.215089l0.078671-207.794719zM262.562422 221.889831l-19.667598-46.87444L635.13227 9.978028a127.262465 127.262465 0 0 1 166.518989 67.85321l51.411099 122.201336-46.87444 19.667598-51.411099-122.188225a76.297165 76.297165 0 0 0-99.872058-40.646368z" p-id="13289" fill="#4FD1D9"></path><path d="M794.728264 599.00945m-50.847294 0a50.847294 50.847294 0 1 0 101.694589 0 50.847294 50.847294 0 1 0-101.694589 0Z" p-id="13290" fill="#4FD1D9"></path></svg>