<?xml version="1.0" standalone="no"?><!DOCTYPE svg PUBLIC "-//W3C//DTD SVG 1.1//EN" "http://www.w3.org/Graphics/SVG/1.1/DTD/svg11.dtd"><svg t="1640225603877" class="icon" viewBox="0 0 1024 1024" version="1.1" xmlns="http://www.w3.org/2000/svg" p-id="8437" xmlns:xlink="http://www.w3.org/1999/xlink" width="48" height="48"><defs><style type="text/css"></style></defs><path d="M62.947657 63.404052 62.947657 63.404052 62.947657 63.404052 62.947657 63.404052zM793.183054 543.821753c0 137.970328-111.877043 249.816672-249.816672 249.816672-137.970328 0-249.817696-111.846344-249.817696-249.816672 0-16.425088 1.62194-32.487925 4.714372-48.042179L130.206504 495.779573l0 332.058768c0 71.281463 57.740052 129.142266 129.142266 129.142266l568.034201 0c71.281463 0 129.142266-57.800427 129.142266-129.142266L956.525236 495.780597l-167.996179 0C791.562137 511.333828 793.183054 527.397688 793.183054 543.821753L793.183054 543.821753 793.183054 543.821753zM827.38297 130.661875 259.34877 130.661875c-71.342862 0-129.142266 57.830103-129.142266 129.143289L130.206504 399.696238l209.16174 0c45.218878-63.895239 119.713522-105.692181 203.998137-105.692181 84.282568 0 158.778236 41.796942 203.997114 105.692181l209.162764 0L956.526259 259.805164C956.525236 188.522678 898.694109 130.661875 827.38297 130.661875L827.38297 130.661875zM890.556779 290.161542c0 12.730952-10.387581 23.060205-23.059182 23.060205L798.377356 313.221748c-12.671601 0-23.060205-10.389628-23.060205-23.060205l0-69.180616c0-12.730952 10.419304-23.060205 23.060205-23.060205l69.12024 0c12.730952 0 23.059182 10.389628 23.059182 23.060205L890.556779 290.161542 890.556779 290.161542 890.556779 290.161542zM697.098695 543.821753c0-84.943624-68.849064-153.73436-153.733337-153.73436-84.883249 0-153.73436 68.790736-153.73436 153.73436s68.850088 153.733337 153.73436 153.733337C628.249631 697.55509 697.098695 628.7664 697.098695 543.821753L697.098695 543.821753 697.098695 543.821753z" p-id="8438" fill=""></path></svg>