<?xml version="1.0" standalone="no"?><!DOCTYPE svg PUBLIC "-//W3C//DTD SVG 1.1//EN" "http://www.w3.org/Graphics/SVG/1.1/DTD/svg11.dtd"><svg t="1640225668082" class="icon" viewBox="0 0 1024 1024" version="1.1" xmlns="http://www.w3.org/2000/svg" p-id="9296" xmlns:xlink="http://www.w3.org/1999/xlink" width="48" height="48"><defs><style type="text/css"></style></defs><path d="M923.8 130.2h-10.4L96.9 546.3v5.2c0 5.2 0 5.2 5.2 5.2l270.4 88.4h10.4L762.6 307 461 660.7v5.2c0 5.2 0 10.4 5.2 10.4l301.7 93.6h5.2l5.2-5.2L929 140.6c0-5.2 0-10.4-5.2-10.4zM471.4 717.9h-5.2l-5.2 5.2v156c0 5.2 5.2 10.4 10.4 10.4s5.2 0 5.2-5.2l83.2-130v-5.2l-5.2-5.2-83.2-26z" p-id="9297" fill=""></path></svg>